<svg width="571" height="510" viewBox="0 0 571 510" fill="none" xmlns="http://www.w3.org/2000/svg">
<path d="M205.61 459.14C205.61 459.14 208.97 459.24 213.04 459.14L220.52 459L219.13 457.23C218.36 456.27 217.02 454.07 216.2 452.44C214.47 449.04 212.65 444.58 206.9 429.57C202.87 419.17 198.75 410.49 196.98 408.72C196.28 408.02 195.227 407.877 193.82 408.29C192.86 408.58 192.05 409.35 191.33 410.59C190.42 412.17 184.81 426.41 182.13 433.89C180.84 437.53 175.51 450.33 174.12 453.07C173.5 454.36 172.15 456.28 171.19 457.24L169.46 459.06H174.4C178.76 459.06 179.29 458.96 178.76 458.34C177.9 457.29 178.38 452.49 179.62 449.9C182.78 443.38 189.78 440.36 196.78 442.57C200.61 443.72 204.98 447.99 206.46 452.01C207.75 455.41 207.75 456.23 206.56 457.76C206.03 458.43 205.6 459.05 205.6 459.15L205.61 459.14ZM281.88 458.76C282.08 458.95 289.55 459.19 291.13 459.1C291.37 459.05 291.18 458.62 290.7 458.09C290.03 457.37 289.88 456.6 290.08 454.64C290.32 451.52 291.42 449.17 293.92 446.35C296.65 443.28 299.05 442.18 303.56 441.89C307.01 441.7 307.49 441.79 310.42 443.23C313.82 444.91 316.75 448.02 318.33 451.76C319.53 454.49 319.48 456.22 318.23 457.8L317.27 459.05H332.28L330.98 457.52C328.68 454.79 326.43 449.75 318.52 429.33C314.73 419.6 310.23 410.06 308.69 408.52C307.97 407.8 307.06 407.8 305.43 408.52C303.7 409.24 302.36 411.78 299.05 420.46C288.5 448.17 285.96 454.16 283.42 456.75C282.46 457.76 281.74 458.67 281.89 458.76H281.88ZM261.99 459.1C264.77 460.49 265.35 460.59 268.37 460.39C270.81 460.2 272.3 459.81 273.88 458.86C275.08 458.14 276.09 457.52 276.09 457.47C276.09 457.37 275.08 457.33 273.84 457.33C268.33 457.28 262.48 451.53 256.49 440.26L254 435.61L257.12 434.17C261.29 432.16 264.89 428.27 265.37 425.21C266.28 419.17 262.83 412.94 257.22 410.35C255.88 409.73 252.95 409.01 250.7 408.77C248.5 408.48 246.34 408.29 245.91 408.34C245.53 408.44 241.07 408.53 236.03 408.58L226.87 408.72L228.12 411.26L229.37 413.75L229.51 431.39C229.7 449.89 229.41 453.73 227.64 457.18C227.16 458.18 226.73 459.09 226.73 459.14C226.73 459.38 240.63 459.48 240.63 459.24C240.63 459.1 240.2 458.42 239.62 457.66C238.33 455.89 237.8 451.52 237.75 442.42V435.18L239.81 435.37C244.84 435.95 244.6 435.8 246.62 439.54C253.24 451.96 256.88 456.61 262.01 459.1H261.99ZM87.2002 460.34C96.4002 460.96 104.22 457.27 107.48 450.8C109.3 447.16 109.69 443.13 109.73 426.97V412.83L110.98 411.01C111.7 410 112.47 409.19 112.66 409.19C112.9 409.19 113.09 409 113.09 408.81C113.09 408.57 110.59 408.43 107.58 408.43C104.56 408.48 102.07 408.57 102.07 408.67C102.07 408.77 102.79 409.68 103.7 410.64C105.91 413.08 106 414.38 105.81 432.21C105.67 446.3 105.62 446.93 104.56 449.04C101.92 454.41 97.9001 456.85 91.5201 456.9C88.0201 456.9 87.0601 456.71 84.7101 455.56C81.1601 453.79 78.8102 451.05 77.5702 447.07C76.7102 444.39 76.5102 442.42 76.3202 433.17C76.0302 420.71 76.6102 412.94 78.0002 410.11C78.5302 409.06 78.7202 408.29 78.3802 408.34C78.0902 408.39 75.1202 408.53 71.7602 408.58L65.6702 408.77L66.7202 410.54C67.7302 412.27 67.7702 412.89 68.0102 430.05C68.2502 447.21 68.3002 447.88 69.3502 450.18C72.0302 456.08 78.4601 459.77 87.1801 460.34H87.2002ZM380.11 459.62C382.6 459.62 385.33 459.38 386.1 459.14L387.54 458.71L386.1 458.13C381.55 456.4 379.77 454.68 369.9 442.36C365.3 436.66 361.08 431.53 360.5 431.05C359.97 430.52 359.49 429.85 359.49 429.52C359.49 428.8 371.33 417.54 376.03 413.8C377.9 412.31 380.39 410.64 381.64 410.01C382.89 409.43 383.89 408.81 383.94 408.67C383.94 408.53 383.36 408.38 382.65 408.43C381.88 408.48 378.77 408.53 375.65 408.62L370.04 408.76L370.81 409.91C371.34 410.72 371.48 411.54 371.24 412.4C371.05 413.21 367.21 417.43 361.08 423.67L351.2 433.59L352.69 434.84C353.51 435.51 354.99 437.19 356 438.58C357.01 439.97 359.84 443.66 362.23 446.83C371.72 459.05 372.63 459.73 380.11 459.63V459.62ZM346.07 459.29C349.76 459.29 352.78 459.29 352.78 459.19C352.78 459.14 352.35 458.37 351.87 457.51C350.24 454.78 349.86 448.93 350 430.76C350.14 412.45 350.19 412.3 352.83 409.43L353.74 408.42L346.74 408.47C342.91 408.47 339.69 408.57 339.6 408.66C339.5 408.76 339.89 409.48 340.46 410.24C341.51 411.63 341.51 411.92 341.66 432.2C341.8 453.77 341.8 453.72 339.65 458.57C339.41 459.19 340.27 459.29 346.07 459.29ZM28.1902 459.53C28.9102 459.53 33.1301 449.51 41.9001 426.93C45.9701 416.38 45.6401 416.62 46.0201 424.05C47.7501 455.64 47.7502 456.46 45.9702 458.33L45.0602 459.34L52.2002 459.39C56.1802 459.39 59.3902 459.34 59.3902 459.2C59.3902 459.1 58.9601 458.43 58.4301 457.71C56.4201 454.98 55.5101 448.55 54.5901 431.01C53.9701 418.55 54.0101 412.7 54.8301 410.4C55.2101 409.39 55.4502 408.48 55.4102 408.48C55.3502 408.48 53.0102 408.53 50.2302 408.62L45.1501 408.81L43.3301 413.65C39.8801 422.81 37.7202 428.61 36.1402 432.68C35.2802 434.93 33.7402 438.86 32.7402 441.4C31.7802 443.99 30.8201 446.1 30.6801 446.1C30.5401 446.1 29.9101 444.85 29.3401 443.32C28.3301 440.59 22.3902 426.73 20.4702 422.61C19.9402 421.41 19.2201 419.69 18.8401 418.78C18.5001 417.87 17.4002 415.18 16.3502 412.84L14.4801 408.53H9.35016C6.57016 408.48 4.27016 408.48 4.27016 408.48C4.27016 408.53 4.70015 409.34 5.23015 410.4C6.09015 412.08 6.19016 413.23 6.19016 421.52C6.19016 432.5 5.37015 449.13 4.70015 452.73C4.32015 454.55 3.69015 455.85 2.54015 457.14C1.63015 458.1 0.910156 459.01 0.910156 459.1C0.910156 459.2 3.40015 459.34 6.47015 459.34L12.0302 459.44L10.5401 457.91C8.14015 455.42 8.00016 454.46 8.57016 445.64C9.34016 434.28 9.91015 419.61 9.67015 418.89C9.53015 418.6 9.62015 418.31 9.86015 418.31C10.1502 418.31 11.0102 419.99 11.8202 422C12.6302 424.06 14.2702 427.99 15.4202 430.77C16.5702 433.55 19.4501 440.55 21.8401 446.35C27.4501 459.87 27.2602 459.53 28.1702 459.53H28.1902ZM120.33 459.19C120.43 459.24 127.43 459.14 135.86 459C149.91 458.76 151.44 458.66 154.32 457.71C165.2 454.07 167.74 443.38 159.45 436.28C157.58 434.65 153.89 433.16 151.73 433.16C151.06 433.16 151.54 432.73 153.12 431.91C162.56 427.12 163.81 416.19 155.47 411.3C154.32 410.63 152.26 409.72 150.87 409.33C148.86 408.71 145.55 408.56 135 408.52C127.62 408.47 121.54 408.62 121.43 408.76C121.33 408.95 121.62 409.38 122.05 409.72C124.02 411.35 124.11 412.65 124.11 433.64C124.11 454.63 124.06 455.98 121.47 457.99C120.7 458.56 120.22 459.09 120.32 459.19H120.33ZM132.84 421.8L132.74 411.64L135.23 411.45C139.64 411.07 145.54 411.5 147.07 412.27C152.15 414.91 153.45 422.72 149.61 427.85C147.6 430.53 144.39 431.64 138.25 431.78L132.98 431.92L132.84 421.8ZM237.73 411.59H242.96C245.84 411.59 248.76 411.78 249.38 412.02C251.3 412.79 254.13 415.52 255.04 417.58C256.72 421.22 255.95 426.5 253.41 429.23C251.2 431.58 248.9 432.35 243.15 432.59L237.73 432.83V411.59ZM313.95 441.45C313.95 441.64 313.23 441.31 312.37 440.63C309.45 438.38 306.76 437.47 303.02 437.47C300.96 437.47 298.8 437.76 297.8 438.19C296.84 438.57 295.98 438.86 295.93 438.77C295.74 438.58 300.34 425.54 302.26 420.94C302.88 419.36 303.41 417.78 303.41 417.39C303.41 417 303.55 416.86 303.7 417.01C304.08 417.39 305.95 421.8 307.25 425.26C307.73 426.55 309.41 430.68 311.04 434.37C312.67 438.01 313.96 441.23 313.96 441.46L313.95 441.45ZM202.26 441.36C202.26 441.55 201.3 441.12 200.15 440.35C199 439.54 197.13 438.58 196.03 438.19C193.54 437.33 188.26 437.28 185.87 438.14C184.86 438.52 184.05 438.71 184.05 438.57C184.05 438.28 186.4 431.71 188.84 425.24C189.94 422.32 191.05 419.3 191.33 418.43C191.81 416.99 192.67 416.7 192.67 417.95C192.67 418.24 193.44 420.35 194.4 422.6C195.36 424.85 196.89 428.5 197.8 430.75C198.71 433 200.1 436.21 200.87 437.89C201.64 439.57 202.26 441.1 202.26 441.34V441.36ZM132.75 434.6H138.17C144.21 434.6 147.85 435.42 150.35 437.28C155.14 440.92 155.96 448.07 152.03 452.48C149.35 455.4 147.91 455.84 139.85 456.08L132.75 456.27V434.6Z" fill="#DDCBA3"/>
<path d="M476.01 458.76C476.21 458.95 483.68 459.19 485.26 459.1C485.5 459.05 485.31 458.62 484.83 458.09C484.16 457.37 484.01 456.6 484.21 454.64C484.45 451.52 485.55 449.17 488.05 446.35C490.78 443.28 493.18 442.18 497.69 441.89C501.14 441.7 501.62 441.79 504.55 443.23C507.95 444.91 510.88 448.02 512.46 451.76C513.66 454.49 513.61 456.22 512.36 457.8L511.4 459.05H526.41L525.11 457.52C522.81 454.79 520.56 449.75 512.65 429.33C508.86 419.6 504.36 410.06 502.82 408.52C502.1 407.8 501.19 407.8 499.56 408.52C497.83 409.24 496.49 411.78 493.18 420.46C482.63 448.17 480.09 454.16 477.55 456.75C476.59 457.76 475.87 458.67 476.02 458.76H476.01ZM508.08 441.45C508.08 441.64 507.36 441.31 506.5 440.63C503.58 438.38 500.89 437.47 497.15 437.47C495.09 437.47 492.93 437.76 491.93 438.19C490.97 438.57 490.11 438.86 490.06 438.77C489.87 438.58 494.47 425.54 496.39 420.94C497.01 419.36 497.54 417.78 497.54 417.39C497.54 417 497.68 416.86 497.83 417.01C498.21 417.39 500.08 421.8 501.38 425.26C501.86 426.55 503.54 430.68 505.17 434.37C506.8 438.01 508.09 441.23 508.09 441.46L508.08 441.45Z" fill="#DDCBA3"/>
<path d="M430.5 457.76C431.75 458.58 432.66 457.42 434.38 453.01C437.78 444.05 441.09 434.89 443.11 428.8C444.21 425.44 445.32 422.71 445.56 422.81C445.75 422.91 446.61 424.87 447.48 427.27C451.17 437.72 454.53 447.07 455.34 449.08C455.77 450.28 456.64 452.68 457.26 454.45C458.08 456.99 458.51 457.71 459.23 457.71C459.71 457.71 460.28 457.71 460.48 457.76C460.91 457.81 461.87 455.17 468.82 434.46C475.05 415.81 476.39 412.65 478.93 410.11C479.65 409.34 480.27 408.67 480.27 408.58C480.27 408.53 478.01 408.48 475.23 408.48C472.45 408.53 470.2 408.72 470.2 408.86C470.2 409.05 470.54 409.48 470.97 409.82C472.55 411.11 471.59 415.76 466.9 429.67C464.5 436.76 462.39 442.95 462.25 443.33C462.11 443.76 461.19 441.8 460.19 438.78C459.18 435.86 457.65 431.54 456.83 429.19C455.97 426.79 454.43 422.48 453.43 419.6C449.21 407.42 449.64 408.33 448.11 408.33C447.34 408.33 446.72 408.52 446.72 408.81C446.72 409.05 445.67 412.17 444.37 415.62C443.12 419.12 440.25 426.98 438.04 433.12C435.84 439.25 433.97 444.19 433.87 444.1C433.77 444 432.34 439.98 430.66 435.14C428.98 430.3 426.92 424.59 426.11 422.48C422.51 413.28 422.04 411.02 423.47 409.58C423.95 409.1 424.05 408.76 423.66 408.57C423.22 408.28 410.86 408.43 410.57 408.71C410.47 408.76 411.1 409.52 411.96 410.39C412.78 411.25 413.83 412.88 414.26 414.08C414.69 415.28 416.13 419.26 417.47 422.95C418.81 426.64 420.2 430.43 420.59 431.34C420.93 432.25 423.23 438.53 425.67 445.24C428.07 451.95 430.27 457.61 430.51 457.75L430.5 457.76ZM547.19 457.47C550.98 457.47 554.09 457.33 554.09 457.14C554.09 456.95 553.61 455.99 553.03 454.98C552.02 453.3 551.93 452.49 551.78 444.19L551.59 435.23L555.86 428.37C558.21 424.58 560.89 420.22 561.81 418.69C563.68 415.48 568.57 409.97 569.96 409.53C572.26 408.76 570.34 408.43 564.4 408.52C560.85 408.52 557.93 408.66 557.93 408.81C557.93 408.96 558.6 409.34 559.37 409.62C560.47 410.05 560.81 410.44 560.81 411.44C560.81 412.83 557.17 420.4 554 425.53C552.95 427.26 551.7 429.27 551.27 429.99C550.84 430.76 550.41 431.33 550.26 431.33C549.92 431.33 541.01 417.19 539.76 414.7C538.56 412.3 538.46 410.58 539.47 409.76C539.85 409.42 540.19 408.99 540.19 408.8C540.19 408.61 536.4 408.46 531.75 408.51C525.9 408.56 523.6 408.7 524.18 409.04C527.68 411.05 532.19 417.05 539.76 429.8C543.59 436.22 543.98 438.19 543.21 447.49C542.78 452.33 542.49 453.67 541.48 455.4L540.28 457.46H547.18L547.19 457.47Z" fill="#DDCBA3"/>
<path d="M67.8804 505.47V488.67H74.8604C76.6404 488.67 78.0304 489.04 79.0404 489.77C80.0604 490.49 80.5804 491.55 80.5804 492.96C80.5804 494.37 80.0904 495.41 79.1204 496.13C78.1404 496.83 76.8604 497.19 75.2804 497.19L75.6904 496.59C77.5604 496.59 78.9904 496.96 79.9604 497.69C80.9304 498.42 81.4204 499.51 81.4204 500.93C81.4204 502.35 80.9104 503.49 79.8804 504.29C78.8704 505.07 77.3504 505.47 75.3204 505.47H67.8804ZM69.6304 504.05H75.3204C76.7404 504.05 77.8204 503.79 78.5604 503.26C79.3004 502.73 79.6604 501.92 79.6604 500.81C79.6604 499.7 79.2904 498.92 78.5604 498.41C77.8204 497.9 76.7404 497.64 75.3204 497.64H69.6304V504.05ZM69.6304 496.27H74.7704C76.0704 496.27 77.0604 496.01 77.7504 495.5C78.4504 494.97 78.8104 494.2 78.8104 493.17C78.8104 492.14 78.4604 491.38 77.7504 490.87C77.0604 490.34 76.0704 490.08 74.7704 490.08H69.6304V496.27ZM83.3804 505.47L91.0604 488.67H92.8104L100.49 505.47H98.6204L91.5604 489.7H92.2804L85.2204 505.47H83.3704H83.3804ZM86.4104 500.98L86.9404 499.54H96.7104L97.2404 500.98H86.4204H86.4104ZM113.58 503.93L113.15 504.41V488.67H114.9V504.41L114.42 503.93H123.04L122.56 504.41V488.67H124.31V505.47H103.72V488.67H105.47V504.41L105.01 503.93H113.58ZM136.24 505.47V488.67H137.99V503.93H148.14V488.67H149.89V505.47H136.23H136.24ZM150.91 509.4V504.98L151.37 505.46H148.15V503.92H152.57V509.39H150.91V509.4ZM156.1 505.47V488.67H157.85V502.59L168.6 488.67H170.21V505.47H168.46V491.57L157.71 505.47H156.1ZM183.82 504.31C181.82 504.31 180.11 504.03 178.68 503.47C177.26 502.89 176.16 502.06 175.39 500.97C174.62 499.88 174.24 498.57 174.24 497.03C174.24 495.49 174.62 494.19 175.39 493.12C176.16 492.03 177.25 491.2 178.68 490.62C180.1 490.04 181.82 489.76 183.82 489.76H184.25C186.27 489.76 187.99 490.05 189.41 490.62C190.83 491.2 191.93 492.03 192.7 493.12C193.47 494.19 193.85 495.5 193.85 497.03C193.85 498.56 193.47 499.88 192.7 500.97C191.95 502.06 190.86 502.89 189.44 503.47C188.02 504.03 186.31 504.31 184.33 504.31H183.83H183.82ZM184.01 502.92H184.18C185.86 502.9 187.29 502.67 188.48 502.22C189.68 501.76 190.59 501.09 191.22 500.23C191.84 499.35 192.16 498.29 192.16 497.04C192.16 495.79 191.84 494.71 191.2 493.85C190.58 492.99 189.67 492.33 188.49 491.88C187.32 491.42 185.91 491.18 184.24 491.18H184.02C182.32 491.18 180.88 491.4 179.68 491.85C178.48 492.3 177.56 492.96 176.92 493.84C176.28 494.7 175.96 495.77 175.96 497.03C175.96 498.29 176.28 499.39 176.92 500.27C177.58 501.13 178.5 501.79 179.7 502.24C180.92 502.69 182.36 502.91 184.02 502.91L184.01 502.92ZM183.22 506.04V488.09H184.88V506.04H183.22ZM197.88 505.47V488.67H204.17C205.59 488.67 206.82 488.9 207.84 489.37C208.86 489.82 209.65 490.47 210.19 491.34C210.75 492.19 211.03 493.22 211.03 494.44C211.03 495.66 210.75 496.65 210.19 497.51C209.65 498.36 208.86 499.01 207.84 499.48C206.82 499.94 205.59 500.18 204.17 500.18H198.87L199.66 499.34V505.48H197.88V505.47ZM199.66 499.47L198.87 498.61H204.13C205.81 498.61 207.08 498.25 207.95 497.53C208.83 496.79 209.27 495.76 209.27 494.43C209.27 493.1 208.83 492.05 207.95 491.31C207.09 490.57 205.81 490.21 204.13 490.21H198.87L199.66 489.37V499.47ZM222.27 505.61C221.01 505.61 219.83 505.4 218.74 504.99C217.67 504.56 216.73 503.96 215.93 503.19C215.15 502.41 214.53 501.5 214.08 500.48C213.65 499.44 213.43 498.3 213.43 497.07C213.43 495.84 213.65 494.71 214.08 493.69C214.53 492.65 215.14 491.75 215.93 490.98C216.73 490.2 217.67 489.6 218.74 489.18C219.81 488.75 220.99 488.53 222.27 488.53C223.55 488.53 224.7 488.75 225.77 489.18C226.84 489.6 227.77 490.19 228.55 490.96C229.35 491.73 229.97 492.63 230.4 493.67C230.85 494.71 231.07 495.85 231.07 497.08C231.07 498.31 230.85 499.45 230.4 500.49C229.97 501.53 229.35 502.43 228.55 503.2C227.77 503.97 226.84 504.57 225.77 505C224.7 505.42 223.53 505.62 222.27 505.62V505.61ZM222.27 504.03C223.28 504.03 224.21 503.86 225.05 503.53C225.91 503.18 226.66 502.69 227.28 502.07C227.92 501.43 228.42 500.69 228.77 499.86C229.12 499.01 229.3 498.08 229.3 497.08C229.3 496.08 229.12 495.15 228.77 494.32C228.42 493.47 227.92 492.74 227.28 492.11C226.66 491.47 225.91 490.98 225.05 490.65C224.2 490.3 223.27 490.12 222.27 490.12C221.27 490.12 220.33 490.3 219.46 490.65C218.6 490.99 217.84 491.47 217.2 492.11C216.58 492.73 216.08 493.47 215.71 494.32C215.36 495.15 215.18 496.07 215.18 497.08C215.18 498.09 215.36 498.99 215.71 499.84C216.08 500.69 216.57 501.43 217.2 502.07C217.84 502.69 218.59 503.18 219.46 503.53C220.32 503.87 221.26 504.03 222.27 504.03ZM235.31 505.47V488.67H242.29C244.07 488.67 245.46 489.04 246.47 489.77C247.49 490.49 248.01 491.55 248.01 492.96C248.01 494.37 247.52 495.41 246.55 496.13C245.57 496.83 244.29 497.19 242.71 497.19L243.12 496.59C244.99 496.59 246.42 496.96 247.39 497.69C248.37 498.43 248.85 499.51 248.85 500.93C248.85 502.35 248.34 503.49 247.31 504.29C246.3 505.07 244.78 505.47 242.75 505.47H235.31ZM237.07 504.05H242.76C244.18 504.05 245.26 503.79 246 503.26C246.74 502.73 247.1 501.92 247.1 500.81C247.1 499.7 246.73 498.92 246 498.41C245.26 497.9 244.18 497.64 242.76 497.64H237.07V504.05ZM237.07 496.27H242.21C243.51 496.27 244.5 496.01 245.19 495.5C245.89 494.97 246.25 494.2 246.25 493.17C246.25 492.14 245.9 491.38 245.19 490.87C244.5 490.34 243.51 490.08 242.21 490.08H237.07V496.27ZM260.66 505.61C259.4 505.61 258.22 505.4 257.13 504.99C256.06 504.56 255.12 503.96 254.32 503.19C253.54 502.41 252.92 501.5 252.47 500.48C252.04 499.44 251.82 498.3 251.82 497.07C251.82 495.84 252.04 494.71 252.47 493.69C252.92 492.65 253.53 491.75 254.32 490.98C255.12 490.2 256.06 489.6 257.13 489.18C258.2 488.75 259.38 488.53 260.66 488.53C261.94 488.53 263.09 488.75 264.16 489.18C265.23 489.6 266.16 490.19 266.94 490.96C267.74 491.73 268.36 492.63 268.79 493.67C269.24 494.71 269.46 495.85 269.46 497.08C269.46 498.31 269.24 499.45 268.79 500.49C268.36 501.53 267.74 502.43 266.94 503.2C266.16 503.97 265.23 504.57 264.16 505C263.09 505.42 261.92 505.62 260.66 505.62V505.61ZM260.66 504.03C261.67 504.03 262.6 503.86 263.44 503.53C264.3 503.18 265.05 502.69 265.67 502.07C266.31 501.43 266.81 500.69 267.16 499.86C267.51 499.01 267.69 498.08 267.69 497.08C267.69 496.08 267.51 495.15 267.16 494.32C266.81 493.47 266.31 492.74 265.67 492.11C265.05 491.47 264.3 490.98 263.44 490.65C262.59 490.3 261.66 490.12 260.66 490.12C259.66 490.12 258.72 490.3 257.85 490.65C256.99 490.99 256.23 491.47 255.59 492.11C254.97 492.73 254.47 493.47 254.1 494.32C253.75 495.15 253.57 496.07 253.57 497.08C253.57 498.09 253.75 498.99 254.1 499.84C254.47 500.69 254.96 501.43 255.59 502.07C256.23 502.69 256.98 503.18 257.85 503.53C258.71 503.87 259.65 504.03 260.66 504.03ZM273.7 505.47V488.67H275.45V502.59L286.2 488.67H287.81V505.47H286.06V491.57L275.31 505.47H273.7ZM280.71 487.44C279.51 487.44 278.56 487.17 277.85 486.62C277.16 486.08 276.81 485.32 276.79 484.34H278.11C278.13 484.98 278.37 485.48 278.83 485.85C279.31 486.22 279.93 486.4 280.7 486.4C281.47 486.4 282.08 486.22 282.55 485.85C283.03 485.48 283.28 484.98 283.29 484.34H284.61C284.59 485.32 284.23 486.08 283.53 486.62C282.83 487.16 281.88 487.44 280.7 487.44H280.71ZM299.77 505.47V488.67H313.91V505.47H312.16V489.73L312.62 490.21H301.08L301.54 489.73V505.47H299.79H299.77ZM319.28 503.81C320.1 504.13 320.86 504.21 321.58 504.05C322.3 503.87 322.96 503.31 323.57 502.35L324.39 501.05L324.56 500.83L330.99 488.66H332.77L325.14 502.72C324.63 503.7 324.02 504.42 323.32 504.9C322.63 505.38 321.9 505.64 321.11 505.67C320.34 505.7 319.57 505.56 318.78 505.24L319.28 503.8V503.81ZM324.52 502.44L317.25 488.66H319.15L325.49 500.97L324.53 502.43L324.52 502.44ZM339.1 505.47V489.73L339.58 490.21H333.2V488.67H346.76V490.21H340.4L340.86 489.73V505.47H339.11H339.1ZM356.91 494.67C358.89 494.67 360.41 495.12 361.45 496.01C362.51 496.89 363.03 498.2 363.03 499.95C363.03 501.7 362.47 503.13 361.35 504.08C360.23 505.01 358.63 505.47 356.55 505.47H349.88V488.67H351.63V494.67H356.91ZM356.5 504.05C358.05 504.05 359.23 503.71 360.03 503.02C360.85 502.33 361.25 501.32 361.25 500C361.25 498.68 360.85 497.7 360.05 497.07C359.25 496.43 358.07 496.11 356.5 496.11H351.63V504.05H356.5ZM373.2 505.47V488.67H380.18C381.96 488.67 383.35 489.04 384.36 489.77C385.38 490.49 385.9 491.55 385.9 492.96C385.9 494.37 385.41 495.41 384.44 496.13C383.46 496.83 382.18 497.19 380.6 497.19L381.01 496.59C382.88 496.59 384.31 496.96 385.28 497.69C386.26 498.43 386.74 499.51 386.74 500.93C386.74 502.35 386.23 503.49 385.2 504.29C384.19 505.07 382.67 505.47 380.64 505.47H373.2ZM374.95 504.05H380.64C382.06 504.05 383.14 503.79 383.88 503.26C384.62 502.73 384.98 501.92 384.98 500.81C384.98 499.7 384.61 498.92 383.88 498.41C383.14 497.9 382.06 497.64 380.64 497.64H374.95V504.05ZM374.95 496.27H380.09C381.39 496.27 382.38 496.01 383.07 495.5C383.77 494.97 384.13 494.2 384.13 493.17C384.13 492.14 383.78 491.38 383.07 490.87C382.38 490.34 381.39 490.08 380.09 490.08H374.95V496.27ZM397.45 505.47V488.67H399.2V502.59L409.95 488.67H411.56V505.47H409.81V491.57L399.06 505.47H397.45ZM424.58 505.61C423.32 505.61 422.15 505.4 421.08 504.99C420.01 504.56 419.08 503.96 418.3 503.19C417.52 502.42 416.9 501.52 416.45 500.48C416.02 499.44 415.8 498.3 415.8 497.07C415.8 495.84 416.02 494.7 416.45 493.66C416.9 492.62 417.51 491.72 418.3 490.95C419.1 490.18 420.04 489.59 421.11 489.17C422.18 488.74 423.35 488.52 424.61 488.52C425.87 488.52 426.97 488.73 428.04 489.14C429.11 489.54 430.02 490.15 430.75 490.96L429.62 492.09C428.93 491.39 428.17 490.88 427.34 490.58C426.51 490.26 425.61 490.1 424.65 490.1C423.64 490.1 422.71 490.28 421.84 490.63C420.98 490.97 420.22 491.45 419.58 492.09C418.94 492.71 418.44 493.45 418.07 494.3C417.72 495.13 417.54 496.05 417.54 497.06C417.54 498.07 417.72 499 418.07 499.84C418.44 500.67 418.94 501.41 419.58 502.05C420.22 502.67 420.97 503.16 421.84 503.51C422.7 503.85 423.64 504.01 424.65 504.01C425.66 504.01 426.51 503.85 427.34 503.53C428.17 503.21 428.93 502.7 429.62 501.99L430.75 503.12C430.01 503.94 429.11 504.55 428.04 504.97C426.97 505.39 425.82 505.59 424.58 505.59V505.61ZM432.75 505.61C432.53 505.61 432.31 505.59 432.1 505.56C431.89 505.54 431.66 505.5 431.4 505.44L431.54 503.86C431.81 503.92 432.08 503.96 432.33 503.96C433.05 503.96 433.63 503.68 434.06 503.12C434.51 502.54 434.84 501.66 435.07 500.48C435.29 499.28 435.44 497.74 435.5 495.87L435.74 488.67H447.14V505.47H445.39V489.73L445.85 490.21H436.87L437.3 489.71L437.08 495.83C437.02 497.51 436.9 498.97 436.72 500.2C436.54 501.42 436.29 502.43 435.95 503.25C435.61 504.05 435.18 504.65 434.65 505.05C434.12 505.43 433.48 505.63 432.73 505.63L432.75 505.61ZM450.34 505.47L458.02 488.67H459.77L467.45 505.47H465.58L458.52 489.7H459.24L452.18 505.47H450.33H450.34ZM453.37 500.98L453.9 499.54H463.67L464.2 500.98H453.38H453.37ZM470.67 505.47V488.67H472.13L479.81 501.77H479.04L486.65 488.67H488.11V505.47H486.41V491.33H486.82L479.81 503.33H478.97L471.91 491.33H472.37V505.47H470.67ZM495.37 496.18H504.25V497.69H495.37V496.18ZM495.56 503.93H505.66V505.47H493.78V488.67H505.3V490.21H495.56V503.94V503.93Z" fill="#A7A286"/>
<path d="M277.85 19.0001C279.28 10.9001 284.64 2.99012 292.07 2.13012C293.24 2.07012 293.36 1.94012 292.68 1.57012C285.58 -1.07988 275.5 1.86011 270.03 8.53011C246.05 33.9701 284.42 69.8101 307.03 43.4401C292.02 51.6001 273.45 36.4601 277.85 19.0001ZM380.35 153.88C377.58 144.15 372.28 133.5 366.06 125.26C357.83 109.05 315.22 87.6301 298.72 74.9601C294.32 71.3601 289.32 66.1201 285.54 61.9101C275.08 73.7601 270.01 78.0501 249.4 90.4101C215.73 110.41 199.94 124.44 190.43 158.25C187.47 170.81 187.41 171.36 187.41 249.42V322.87H250.2V301.94H208.28C208.35 268.9 208.58 202.3 208.71 169.27C212.92 152.84 219.21 138.81 229.58 129.69C239.32 119.52 271.65 102.33 285.54 91.5801C302.72 103.58 336.63 121.88 345.44 132.89C372.85 170.23 361.33 175.3 363.97 241.61L363.79 301.63C353.28 301.74 332.13 301.89 321.62 301.94V322.87H384.41V249.67C384.41 168.29 384.41 168.16 380.35 153.88ZM301.91 134.35V247.23H294.91V131.35C294.38 131.15 293.84 130.97 293.3 130.79C287.71 129.31 281.95 129.61 276.31 131.23H276.91V247.23H269.91V133.63C252 141.91 236.31 162.19 231.92 178.81L230.26 184.66C230.06 205.77 229.73 248.19 229.58 269.31H244.91V203.5L251.91 183.23V269.31H319.91V146.89C314.47 141.82 308.33 137.54 301.91 134.35ZM338.79 175.55C336.43 168.01 332.26 160.75 326.91 154.28V269.31H341.93V229.66C341.93 187.43 341.75 184.41 338.79 175.55ZM269.29 289.01V322.87H302.53V289.01H269.29ZM187.41 342.57V364.12H384.41V342.57H187.41Z" fill="#DDCBA3"/>
</svg>
